<?xml version="1.0" standalone="no"?><!DOCTYPE svg PUBLIC "-//W3C//DTD SVG 1.1//EN" "http://www.w3.org/Graphics/SVG/1.1/DTD/svg11.dtd"><svg t="1515458304439" class="icon" style="" viewBox="0 0 1024 1024" version="1.1" xmlns="http://www.w3.org/2000/svg" p-id="2664" xmlns:xlink="http://www.w3.org/1999/xlink" width="200" height="200"><defs><style type="text/css"></style></defs><path d="M657.76543 230.488477l0.156445 0 97.763281 0 0-14.318555L755.685156 97.567773c0-8.590234-3.181055-17.181641-9.505078-23.783789-6.366992-6.522461-14.675195-9.78418-22.988672-9.78418l-128.504883 0-1.75 0-0.079688 0 0 99.351563c0 17.181641 6.324219 34.363281 19.012305 47.488867C624.555273 223.886328 641.180859 230.488477 657.76543 230.488477zM480.419336 761.293164l0-13.44043c0-3.579688 0.276953-7.794141 0.872852-12.567578L267.475195 735.285156c-14.994141 0-27.84082-5.328516-38.5-16.072656-10.699023-10.736914-16.028711-23.861523-16.028711-39.371875 0-15.514453 5.329492-28.798438 16.028711-39.854297 10.65918-11.052734 23.505664-16.544727 38.5-16.544727l251.879492 0c21.913281-35.242383 50.949023-63.318164 86.983398-84.15918 36.074219-20.920703 75.766211-31.340625 119.039648-31.340625 4.617188 0 9.506055 0.159375 14.715039 0.477344 5.171094 0.238086 10.377148 0.715625 15.590039 1.352344L755.682813 287.760547l-126.394141 0c-16.148242 0-29.988477-3.739062-41.562305-11.216211-11.53418-7.477148-20.880859-16.704297-28.119727-27.761133-7.198047-10.977148-12.528711-23.068359-15.988867-36.192969-3.463086-13.125586-5.213086-25.375391-5.213086-36.75L538.404688 63.999805l-244.839844 0-86.661523 0L137.222461 63.999805c-8.312305 0-16.627539 3.260742-22.948633 9.78418-6.364063 6.602148-9.50625 15.193555-9.50625 23.783789L104.767578 179.419922l0 31.101563 0 547.350586-0.039844 0 0 112.953711c0 8.590234 3.182031 17.18457 9.505078 23.786914 6.325195 6.522461 14.636523 9.779102 22.949805 9.779102l76.84043 0c0.796289 0.079688 1.591602 0.079688 2.386719 0.079688l307.28418 0c-13.841211-20.283984-24.50332-42.476172-32.018359-66.658594C484.155273 813.633203 480.419336 788.100586 480.419336 761.293164zM228.977344 415.749219c10.65918-10.737891 23.505859-16.067383 38.5-16.067383L592.060547 399.681836c14.995117 0 27.841797 5.329492 38.539844 16.067383 10.65918 10.738867 15.989844 23.863477 15.989844 39.375 0 15.511328-5.330664 28.795508-15.989844 39.849219-10.698047 11.056836-23.544531 16.546875-38.539844 16.546875L267.477148 511.520312c-14.994141 0-27.84082-5.490039-38.5-16.546875-10.699023-11.053711-16.028711-24.34082-16.028711-39.849219C212.948633 439.612891 218.27832 426.487109 228.977344 415.749219zM904.117188 686.044141c-10.102148-23.866602-23.824609-44.705469-41.123828-62.601758-17.302148-17.899219-37.50332-32.135937-60.573633-42.555859-23.068359-10.423047-47.8875-15.671875-74.454688-15.671875-25.971289 0-50.47168 5.248828-73.579688 15.671875-23.064258 10.41582-43.272461 24.656641-60.572656 42.555859-17.302344 17.896094-31.023828 38.736133-41.123828 62.601758-10.102148 23.863477-15.151562 49.237891-15.151562 76.124023 0 27.443164 5.048437 53.136328 15.151562 77 10.104102 23.865625 23.825781 44.705664 41.123828 62.601758 17.300195 17.900195 37.504297 32.134961 60.572656 42.558008 23.108203 10.420898 47.608594 15.669727 73.579688 15.669727 26.567188 0 51.385352-5.248828 74.454688-15.669727 23.066211-10.418945 43.271484-24.657813 60.573633-42.558008 17.302148-17.896094 31.025977-38.736133 41.123828-62.601758 10.103125-23.863477 15.152539-49.556641 15.152539-77C919.269727 735.282031 914.220313 709.906641 904.117188 686.044141zM861.119727 682.673047l-176.028711 193.29082c-1.192773 1.310352-2.891797 2.158789-4.803125 2.230469-1.909375 0.071484-3.668555-0.650195-4.956445-1.868555l-79.294727-75.062891c-1.299219-1.229688-2.11582-2.965234-2.138281-4.895117-0.020508-1.930859 0.761523-3.683984 2.035156-4.940039l24.521875-24.20293c1.229688-1.214258 2.917383-1.965625 4.783789-1.973828 1.864453-0.005078 3.55625 0.738086 4.795117 1.942188l45.10918 43.968555c1.299219 1.264453 3.091016 2.016797 5.047461 1.938086 1.954297-0.078711 3.683984-0.967969 4.876758-2.333594l141.085742-161.414648c1.193945-1.365625 2.926563-2.255859 4.883008-2.332617 1.955469-0.074609 3.751367 0.675586 5.048437 1.944141l24.759961 24.215234c1.222461 1.195898 2.001367 2.845703 2.055469 4.692773C862.95332 679.714844 862.27168 681.409766 861.119727 682.673047z" p-id="2665"></path></svg>