<?xml version="1.0" standalone="no"?><!DOCTYPE svg PUBLIC "-//W3C//DTD SVG 1.1//EN" "http://www.w3.org/Graphics/SVG/1.1/DTD/svg11.dtd"><svg t="1515665155301" class="icon" style="" viewBox="0 0 1024 1024" version="1.1" xmlns="http://www.w3.org/2000/svg" p-id="3338" xmlns:xlink="http://www.w3.org/1999/xlink" width="200" height="200"><defs><style type="text/css"></style></defs><path d="M844.844522 204.399304h-94.386087v-43.987478c0-29.117217-24.709565-52.847304-55.073392-52.847304h-66.604521C620.187826 46.925913 565.782261 0 500.246261 0 434.665739 0 380.304696 46.925913 371.667478 107.609043H305.107478c-30.363826 0-55.073391 23.685565-55.073391 52.802783v43.987478h-94.386087C118.873043 204.399304 89.043478 233.071304 89.043478 268.332522v689.997913c0 35.216696 29.874087 63.888696 66.604522 63.888695h689.196522c36.685913 0 66.56-28.672 66.56-63.888695V268.332522c0-35.261217-29.829565-63.933217-66.56-63.933218z m-118.962087 646.811826H276.034783v-50.977391h449.80313v50.977391z m0-162.504347H276.034783v-50.93287h449.80313v50.93287z m0-162.504348H276.034783v-50.93287h449.80313v50.977392z" p-id="3339"></path></svg>