<?xml version="1.0" standalone="no"?><!DOCTYPE svg PUBLIC "-//W3C//DTD SVG 1.1//EN" "http://www.w3.org/Graphics/SVG/1.1/DTD/svg11.dtd"><svg t="1515396865409" class="icon" style="" viewBox="0 0 1024 1024" version="1.1" xmlns="http://www.w3.org/2000/svg" p-id="1859" xmlns:xlink="http://www.w3.org/1999/xlink" width="200" height="200"><defs><style type="text/css"></style></defs><path d="M214.4 328.3h475.1v105.6H214.4z" p-id="1860"></path><path d="M690 434.4H213.9V327.8H690v106.6z m-475.1-1H689V328.8H214.9v104.6zM214.4 539.5H320v264H214.4z" p-id="1861"></path><path d="M320.5 804H213.9V539h106.6v265z m-105.6-1h104.6V540H214.9v263z" p-id="1862"></path><path d="M689.5 539.5h-264v264h263.4c0-61 0.6-264 0.6-264z" p-id="1863"></path><path d="M689.4 804H425V539h265v0.5c0 2-0.6 203.6-0.6 264v0.5zM426 803h262.4c0-59.5 0.6-251.7 0.6-263H426v263z" p-id="1864"></path><path d="M108.8 919l-10-10V206.9l10-10h79.7v-79.8l10-10h702.3l10 10v746.1l-0.1 6.9v39l-10 10-791.9-0.1z m742.8-58.9l0.2-3.8V166.2H247.4V197H811l10 10v649.4l0.2 3.8 30.4-0.1z m-90.8 0l1.2-3.8V256H157.7v604l603.1 0.1z" p-id="1865"></path></svg>