<?xml version="1.0" standalone="no"?><!DOCTYPE svg PUBLIC "-//W3C//DTD SVG 1.1//EN" "http://www.w3.org/Graphics/SVG/1.1/DTD/svg11.dtd"><svg t="1515078816383" class="icon" style="" viewBox="0 0 1024 1024" version="1.1" xmlns="http://www.w3.org/2000/svg" p-id="1012" xmlns:xlink="http://www.w3.org/1999/xlink" width="200" height="200"><defs><style type="text/css"></style></defs><path d="M561.8 497.6c49-48.6 77.2-115.8 78.2-186.5s-25.3-138.8-72.9-188.8c20.8-8.3 42.9-12.5 65.2-12.5 103.5 0 187.5 90.1 187.5 201.3 0 111.2-83.9 201.3-187.5 201.3-24.2 0-48.2-5-70.5-14.8z m89 81.9h67.4c133.7 0 242.1 116.3 242.1 260v16.8c0 45.5-70.1 55.8-167.1 58.1 4.7-7.6 7.1-16.4 7-25.4v-21.8c0.6-116.5-55.8-225-149.4-287.7zM376.1 109.9c103.5 0 187.5 90.1 187.5 201.3 0 111.2-83.9 201.3-187.5 201.3-103.5 0-187.5-90.1-187.5-201.3 0.1-111.2 84-201.3 187.5-201.3z m-70.3 469.6H462c133.7 0 242.1 116.3 242.1 260v16.8c0 56.6-108.4 58.8-242.1 58.8H305.8c-133.7 0-242.1-0.1-242.1-58.8v-16.8c0-143.6 108.4-260 242.1-260z m0 0" fill="" p-id="1013"></path></svg>